<svg xmlns="http://www.w3.org/2000/svg" viewBox="0 0 566.92913 566.92913"><g id="Conduc_Papier" data-name="Conduc Papier"><path d="M217.64862,365.50473c.956.743,1.57129,1.22162,2.187,1.69967,10.039,7.79418,8.55355,23.24412-.73327,29.05411a39.22088,39.22088,0,0,1-8.01416,3.36463,71.44692,71.44692,0,0,1-19.67219,4.07263c-7.71458.41145-12.46338-2.71535-14.97142-10.00242-2.236-6.49669-2.407-13.1791-1.7215-19.93091.9411-9.26863,2.30717-18.4607,5.57857-27.24172,5.42962-14.57408,14.97208-26.027,27.262-35.29387a126.58842,126.58842,0,0,1,43.39566-21.10751,6.07741,6.07741,0,0,1,5.26425.83312c17.02446,11.24349,36.99251,11.21287,54.02442-.08384a5.91856,5.91856,0,0,1,5.37325-.742c17.33084,5.05648,33.40979,12.52,47.51855,23.97811,14.97935,12.16517,24.72856,27.4398,28.01532,46.58929,1.42323,8.29214,2.64855,16.63958,1.48886,25.06869a40.21994,40.21994,0,0,1-2.33073,9.23431c-2.84585,7.202-8.363,10.28459-15.92986,8.78794-7.07454-1.39923-14.09478-3.117-21.07316-4.94564-6.66467-1.74639-10.51631-6.338-11.89714-13.00332-1.40227-6.76883.12094-12.70528,5.4387-17.35981,2.66647-2.33389,3.44774-2.13027,1.35764-6.619-6.57713-14.12479-15.84415-25.94971-29.7255-33.48336-38.11374-20.685-78.0172-4.7216-95.38272,25.699C221.00869,357.73848,219.44434,361.7057,217.64862,365.50473Z"/><path d="M337.07842,209.26877c.79923,3.94232,1.86611,7.89913,2.37331,11.92643,2.583,20.50968-3.74239,38.05364-18.29406,52.55714-9.02157,8.99168-20.21866,13.368-32.87511,14.23242-14.47233.98847-27.55809-2.61005-38.87234-11.81975-10.83763-8.82173-17.26875-20.39553-20.48482-33.8677-.50667-2.12247-1.02178-4.24757-1.39634-6.39528-.25-1.43365-.78823-2.00821-2.37854-1.9736-5.43305.11823-10.87027.04523-16.3059.04519l-1.44444,0c.46007-.61655.71155-1.01562,1.0225-1.36116q10.12-11.24588,20.28258-22.453a3.21083,3.21083,0,0,1,2.12336-.93852q52.36686-.06789,104.73386-.03667C335.95067,209.1843,336.33886,209.22619,337.07842,209.26877Z"/><path d="M221.48821,162.97485H345.92548c-2.37156,12.0587-4.72048,24.00219-7.10927,36.14843h-1.64515q-53.12472,0-106.24942.02453c-1.25875.00108-1.865-.26553-2.1456-1.62369-2.15091-10.41093-4.38913-20.80381-6.59837-31.20269C221.958,165.28755,221.75077,164.251,221.48821,162.97485Z"/><path d="M249.01894,348.24909c16.78749-17.07828,51.138-17.98321,69.67471.2408-.89912.90138-1.7867,1.817-2.70167,2.70435-6.67508,6.47379-13.36993,12.92739-20.01585,19.431a1.737,1.737,0,0,1-2.41491.39086,20.99635,20.99635,0,0,0-18.7891-.50567,2.56106,2.56106,0,0,1-3.20366-.40893q-10.97905-10.64477-22.0087-21.23741C249.363,348.67431,249.19679,348.45281,249.01894,348.24909Z"/><path d="M266.36,401.91918c-6.34442-.71981-12.68935-1.3596-19.01036-2.183-4.77307-.62177-9.51454-1.4847-14.272-2.22779-2.55342-.39878-3.0741-.846-3.29937-3.373a52.21521,52.21521,0,0,1,10.77763-37.50988c.402-.52758.89406-.98648,1.43-1.571.34482.298.64886.5158.89926.78371q10.61944,11.36281,21.23284,22.73127c.55386.59241.96793,1.04857.50019,2.01546-3.04772,6.3-2.36341,12.48685.76172,18.55326.35855.696.74123,1.37959,1.10681,2.072A3.80111,3.80111,0,0,1,266.36,401.91918Z"/><path d="M326.00042,354.955c5.78237,7.45805,9.93814,15.71137,11.12029,25.14563.60856,4.85687.36653,9.82056.50305,14.73615a1.98137,1.98137,0,0,1-1.81884,2.23784c-11.417,1.51933-22.69458,4.098-34.25549,4.52189a5.64226,5.64226,0,0,1-.66268-.07185c.20425-.43329.35757-.82126.561-1.18089,3.59318-6.35118,4.67684-12.87408,1.437-19.73258a1.42739,1.42739,0,0,1,.17072-1.27644q11.32594-12.16782,22.71713-24.27491C325.808,355.02213,325.87286,355.01217,326.00042,354.955Z"/><path d="M283.76077,399.88151a10.57286,10.57286,0,1,1-.0923-21.14518,10.60428,10.60428,0,0,1,10.64,10.50911A10.71823,10.71823,0,0,1,283.76077,399.88151Z"/><path d="M356.11458,204.12135h15.4125a1.64745,1.64745,0,0,1,1.64741,1.64741v83.38679h60.0092a1.64746,1.64746,0,0,1,1.64755,1.64726v8.54992A1.64746,1.64746,0,0,1,433.18369,301H356.11458a1.6474,1.6474,0,0,1-1.64727-1.64727v-93.584a1.64742,1.64742,0,0,1,1.64727-1.64741Zm13.76524,3.29464H357.762v90.28948h73.77446v-5.25539H371.52708a1.64732,1.64732,0,0,1-1.64726-1.64727Z"/><path d="M434.011,218.34241a1.64733,1.64733,0,0,0,0-3.29465H386.11261a1.64733,1.64733,0,1,0,0,3.29465Z"/><path d="M434.011,229.26867a1.64732,1.64732,0,0,0,0-3.29464H386.11261a1.64732,1.64732,0,1,0,0,3.29464Z"/><path d="M434.011,240.19494a1.64732,1.64732,0,0,0,0-3.29464H386.11261a1.64732,1.64732,0,1,0,0,3.29464Z"/><path d="M434.011,251.12121a1.64732,1.64732,0,0,0,0-3.29464H386.11261a1.64732,1.64732,0,1,0,0,3.29464Z"/><path d="M434.011,262.04762a1.6474,1.6474,0,0,0,0-3.29479H386.11261a1.6474,1.6474,0,0,0,0,3.29479Z"/><path d="M434.011,272.97375a1.64727,1.64727,0,1,0,0-3.29453H386.11261a1.64727,1.64727,0,1,0,0,3.29453Z"/><path d="M371.52708,195.57143h63.91747a1.64229,1.64229,0,0,1,1.17163.48959L449.761,209.20583h0a1.64157,1.64157,0,0,1,.48261,1.16479h0v80.43219a1.64739,1.64739,0,0,1-1.64727,1.64727H371.52708a1.64732,1.64732,0,0,1-1.64726-1.64727V197.21869a1.64731,1.64731,0,0,1,1.64726-1.64726Zm63.23515,3.29464H373.17449v90.28948h73.77458V211.05266Z"/></g></svg>