<svg xmlns="http://www.w3.org/2000/svg" viewBox="0 0 566.92913 566.92913"><defs><style>.cls-1{fill:none;stroke:#000;stroke-miterlimit:10;stroke-width:7px;}</style></defs><g id="Calque_7" data-name="Calque 7"><path d="M297.26094,250.29668H275.02079a8.54344,8.54344,0,0,0-8.5211,9.26426l5.534,65.93929a8.59992,8.59992,0,0,0,8.5211,7.83H291.727a8.59541,8.59541,0,0,0,8.51637-7.83l5.53874-65.93929a8.55072,8.55072,0,0,0-8.52113-9.26426Z"/><path d="M286.14086,345.60521a15.32618,15.32618,0,1,0,15.32383,15.32872A15.34573,15.34573,0,0,0,286.14086,345.60521Z"/><path d="M285.70022,188.206a2.367,2.367,0,0,0,2.367-2.367V164.39246a2.367,2.367,0,1,0-4.734,0V185.839A2.367,2.367,0,0,0,285.70022,188.206Z"/><path d="M160.91843,295.20264H182.748a2.367,2.367,0,0,0,0-4.73395H160.91843a2.367,2.367,0,0,0,0,4.73395Z"/><path d="M390.19837,295.20264h21.59427a2.367,2.367,0,1,0,0-4.73395H390.19837a2.367,2.367,0,1,0,0,4.73395Z"/><path d="M213.10429,220.58a2.36688,2.36688,0,0,0,3.34751-3.347l-15.46187-15.46212a2.36689,2.36689,0,1,0-3.34751,3.34708Z"/><path d="M358.09,221.20362a2.35946,2.35946,0,0,0,1.67377-.69346l15.392-15.39227a2.36689,2.36689,0,0,0-3.34751-3.34708l-15.392,15.39231a2.367,2.367,0,0,0,1.67374,4.0405Z"/><path class="cls-1" d="M278.86134,205.867,155.91245,382.81912a9.11372,9.11372,0,0,0,7.48444,14.314H405.29606A9.11372,9.11372,0,0,0,412.8597,382.935L293.90941,205.98283A9.11371,9.11371,0,0,0,278.86134,205.867Z"/></g></svg>