<svg xmlns="http://www.w3.org/2000/svg" viewBox="0 0 566.92913 566.92913"><g id="Partenaire_Papier" data-name="Partenaire Papier"><path d="M138.28346,268.50666a20.19537,20.19537,0,0,0,1.71046-1.89144q21.478-30.54023,42.92732-61.10068c.50727-.7222,1.03766-1.42815,1.64325-2.25973.5747.33963,1.13015.61989,1.63437.97325,5.27727,3.69845,10.57709,7.36583,15.80945,11.127,5.79551,4.16592,7.1078,11.20982,3.047,17.03347q-16.10295,23.09316-32.37385,46.069c-4.00985,5.65846-11.1359,6.82823-16.89043,2.90085-5.12269-3.49616-10.15122-7.13006-15.24082-10.67515a20.91554,20.91554,0,0,0-2.2667-1.209Zm24.31775-1.07888a4.61369,4.61369,0,0,0-4.53732-4.68016,4.77243,4.77243,0,0,0-4.68588,4.59946,4.60011,4.60011,0,0,0,4.60081,4.618A4.48487,4.48487,0,0,0,162.60121,267.42778Z"/><path d="M325.41768,311.15589c2.04428,1.8458,4.10271,3.43042,5.82777,5.31946A12.50663,12.50663,0,0,1,333.97,329.7476c-1.76658,4.94-5.08587,8.56951-10.53949,9.63884a6.41257,6.41257,0,0,1-6.3384-1.89184c-7.55763-7.71584-15.25915-15.29077-22.91-22.91522a5.44074,5.44074,0,0,0-1.423-1.28287c-.5058-.2179-1.4587-.28478-1.71439.01227a2.23128,2.23128,0,0,0-.38025,1.89675,5.94615,5.94615,0,0,0,1.525,1.82531c7.64323,7.63214,15.24336,15.30883,22.98727,22.83758,1.72248,1.67461,1.7854,3.24426.50671,4.83555a56.50592,56.50592,0,0,1-6.48975,7.12686,12.47468,12.47468,0,0,1-11.32559,2.70923,6.62486,6.62486,0,0,1-3.0223-1.77q-13.33486-13.16812-26.56906-26.43819c-.39943-.39826-.736-.97244-1.21761-1.14914a11.55687,11.55687,0,0,0-2.36433-.37484,10.74565,10.74565,0,0,0,.24887,2.57208c.18475.54822.85585.93368,1.31252,1.38894q10.61817,10.58493,21.25083,21.15524a14.82937,14.82937,0,0,0,2.04828,1.47209c-4.606,7.01093-11.36714,9.91479-18.18287,8.05347a7.75876,7.75876,0,0,1-3.24522-1.88049c-4.76029-4.67272-9.42092-9.447-14.29006-14.36226-1.05853,6.61267,5.02951,8.3101,7.44171,12.36679-2.69274,3.52445-7.91779,4.8319-12.54581,2.96522a8.45254,8.45254,0,0,0-4.81307-.64559c-6.03564.967-10.74283-2.41161-13.12712-9.23822-5.27435,3.78672-10.694,4.43907-15.82447.0029-3.879-3.354-4.49152-7.79467-3.14327-12.84626a11.99639,11.99639,0,0,1-8.6424-5.13013,11.49633,11.49633,0,0,1-1.56174-9.73783c-.8298-.20282-1.51912-.37108-2.20834-.5398a11.375,11.375,0,0,1-8.36187-14.90279,2.863,2.863,0,0,0-.86838-3.529c-3.95992-3.78872-7.82188-7.68007-11.70889-11.54467-3.00159-2.98428-3.22883-5.12522-.85835-8.50294q15.75834-22.454,31.517-44.90764a6.26065,6.26065,0,0,1,5.20074-2.93077c4.18167-.221,8.36015-.58962,12.52385-1.04421a38.55692,38.55692,0,0,1,21.34672,3.79747,3.58689,3.58689,0,0,0,3.31478-.05758c9.11237-3.64351,18.23521-7.26936,27.44277-10.66195a15.79266,15.79266,0,0,1,10.91714.27c9.39309,3.36283,18.80281,6.68258,28.13842,10.19867a6.943,6.943,0,0,1,3.43334,3.07788c8.00512,15.79577,15.88159,31.65683,23.768,47.5126,1.49019,2.996,1.08288,5.06167-1.41995,7.3405C337.84352,299.941,331.85922,305.32955,325.41768,311.15589Zm15.99285-20.99554c-7.959-15.96208-15.80772-31.73713-23.72585-47.47725a4.05221,4.05221,0,0,0-2.08783-1.73569c-8.90852-3.27453-17.8494-6.46084-26.77749-9.6823a13.50886,13.50886,0,0,0-9.68443-.007q-12.516,4.76694-25.01928,9.56714a8.82451,8.82451,0,0,0-5.53983,5.29481c-1.0349,2.78308-2.42071,5.43575-3.65465,8.14471q-7.00371,15.37575-14.024,30.74388c-.90205,1.96333-1.16007,3.89871.77956,5.16554a10.47242,10.47242,0,0,0,4.68423,1.57973c3.88414.32374,6.93073-1.74417,9.75438-4.10937,7.27616-6.09481,11.36132-14.12051,13.53755-23.15564,1.06462-4.42,1.56469-8.976,2.33815-13.57674,2.3587.113,4.7697.17193,7.17039.36133,1.96847.15529,3.14178,1.41958,2.52216,3.26179-.59827,1.77871.12967,2.6217,1.20957,3.69567q23.82707,23.69629,47.60905,47.43792c.56179.56,1.15464,1.08878,1.828,1.72138C328.70126,301.63709,334.97175,295.97472,341.41053,290.16035Zm-110.6292,34.448c-1.42183.64721-3.13969.98306-4.20969,2.00033-3.14971,2.99451-6.14368,6.17091-9.00355,9.44641a6.50792,6.50792,0,0,0,9.34961,8.97683c3.12733-3.02054,6.10465-6.20944,8.9817-9.47124a5.89084,5.89084,0,0,0,.80935-6.79252A7.39806,7.39806,0,0,0,230.78133,324.60839Zm-6.95-5.57268a6.38871,6.38871,0,0,0-3.741-5.50081,5.97112,5.97112,0,0,0-6.81007.7091,51.10855,51.10855,0,0,0-5.82214,6.11445,5.96506,5.96506,0,0,0-.52911,6.81944,6.27091,6.27091,0,0,0,5.87537,3.56859C216.77505,330.79026,223.91031,323.31548,223.83134,319.03571Zm18.36694,34.06706A6.72278,6.72278,0,0,0,248.908,346.564a6.57809,6.57809,0,0,0-6.36256-6.573,6.51005,6.51005,0,0,0-6.79994,6.347A6.65,6.65,0,0,0,242.19828,353.10277Zm-33.707-43.89634a6.54567,6.54567,0,0,0-6.51989-6.6522,6.58267,6.58267,0,0,0-.14541,13.16387A6.56269,6.56269,0,0,0,208.49132,309.20643Z"/><path d="M349.9762,207.94948c12.03064,24.12566,23.94068,48.00945,35.96288,72.11815-3.808,1.9068-7.53,3.77264-11.254,5.63461-2.58982,1.29488-5.16491,2.62078-7.777,3.86915-6.3905,3.05411-13.26675.86462-16.439-5.43838q-12.63846-25.11141-25.08731-50.31807a11.79844,11.79844,0,0,1,4.94945-16.01524C336.72421,214.41838,343.258,211.30327,349.9762,207.94948Zm21.34714,67.44625a4.63369,4.63369,0,0,0-4.6729-4.50711,4.52244,4.52244,0,0,0-4.56077,4.79655,4.5931,4.5931,0,0,0,4.72937,4.4226A4.74194,4.74194,0,0,0,371.32334,275.39573Z"/><path d="M343.07685,251.77638h17.39006a1.85883,1.85883,0,0,1,1.85879,1.85878v94.08606h67.70891a1.85884,1.85884,0,0,1,1.85895,1.85863v9.647a1.85883,1.85883,0,0,1-1.85895,1.85862H343.07685a1.85877,1.85877,0,0,1-1.85863-1.85862V253.63516a1.8588,1.8588,0,0,1,1.85863-1.85878Zm15.53144,3.71737H344.9356V357.36817H428.176v-5.9297H360.46691a1.85869,1.85869,0,0,1-1.85862-1.85862Z"/><path d="M430.968,267.82212a1.85869,1.85869,0,0,0,0-3.71738H376.9239a1.85869,1.85869,0,1,0,0,3.71738Z"/><path d="M430.968,280.15033a1.85869,1.85869,0,0,0,0-3.71738H376.9239a1.85869,1.85869,0,1,0,0,3.71738Z"/><path d="M430.968,292.47853a1.85869,1.85869,0,0,0,0-3.71737H376.9239a1.85869,1.85869,0,1,0,0,3.71737Z"/><path d="M430.968,304.80674a1.85869,1.85869,0,0,0,0-3.71738H376.9239a1.85869,1.85869,0,1,0,0,3.71738Z"/><path d="M430.968,317.13511a1.85877,1.85877,0,0,0,0-3.71754H376.9239a1.85877,1.85877,0,0,0,0,3.71754Z"/><path d="M430.968,329.46315a1.85862,1.85862,0,1,0,0-3.71724H376.9239a1.85862,1.85862,0,1,0,0,3.71724Z"/><path d="M360.46691,242.12943h72.11866a1.853,1.853,0,0,1,1.32195.55241l14.83141,14.8314h0a1.8522,1.8522,0,0,1,.54453,1.31425h0v90.75236a1.85876,1.85876,0,0,1-1.85862,1.85862H360.46691a1.85869,1.85869,0,0,1-1.85862-1.85862V243.98805a1.85868,1.85868,0,0,1,1.85862-1.85862Zm71.34878,3.71737h-69.49V347.72122h83.24052V259.597Z"/></g></svg>