<svg xmlns="http://www.w3.org/2000/svg" viewBox="0 0 566.92913 566.92913"><g id="Partenaire"><path d="M115.69685,263.21382a30.19051,30.19051,0,0,0,2.5572-2.82778q32.11055-45.65884,64.178-91.34794c.75839-1.07971,1.55134-2.13514,2.45672-3.37839.85921.50777,1.68963.92677,2.44346,1.45506C195.222,172.64409,203.14544,178.127,210.968,183.75c8.66451,6.22822,10.62644,16.75913,4.5553,25.46571q-24.07453,34.5252-48.40017,68.875c-5.9949,8.45962-16.64863,10.20847-25.25188,4.33689-7.65861-5.2269-15.17647-10.65972-22.78563-15.95978a31.27033,31.27033,0,0,0-3.38879-1.80757Zm36.356-1.613a6.89765,6.89765,0,0,0-6.78347-6.997,7.135,7.135,0,0,0-7.00559,6.87638,6.87733,6.87733,0,0,0,6.8784,6.90408A6.70505,6.70505,0,0,0,152.05285,261.60085Z"/><path d="M395.46993,326.97612c3.05629,2.75955,6.13372,5.1286,8.71275,7.9528,5.23234,5.72969,6.65129,12.63351,4.07331,19.84253-2.64109,7.38551-7.60358,12.81178-15.757,14.41047a9.58708,9.58708,0,0,1-9.47616-2.82839c-11.299-11.53549-22.813-22.86031-34.25141-34.25916a8.13438,8.13438,0,0,0-2.12748-1.91794c-.7562-.32578-2.18082-.42576-2.56308.01835a3.33579,3.33579,0,0,0-.56849,2.83571,8.88951,8.88951,0,0,0,2.27994,2.72891c11.42692,11.41035,22.78942,22.8873,34.36688,34.14309,2.57518,2.5036,2.66924,4.8503.75755,7.22933a84.47778,84.47778,0,0,1-9.70243,10.65495c-4.78435,4.21427-10.7071,5.40334-16.9322,4.0504a9.90446,9.90446,0,0,1-4.51848-2.64622q-19.93614-19.68685-39.72179-39.52614c-.59716-.59542-1.10034-1.45385-1.82037-1.718a17.27759,17.27759,0,0,0-3.53477-.56041,16.0653,16.0653,0,0,0,.37206,3.84537c.27621.81961,1.27953,1.39589,1.96228,2.07652q15.87459,15.82489,31.77083,31.62792a22.16991,22.16991,0,0,0,3.06227,2.20084c-6.88612,10.48162-16.99433,14.823-27.18412,12.04025a11.59951,11.59951,0,0,1-4.85173-2.81141c-7.11682-6.9859-14.08465-14.12359-21.3642-21.47215-1.58255,9.88621,7.51931,12.42393,11.12564,18.48885-4.02576,5.2692-11.83741,7.22388-18.75648,4.43313a12.6368,12.6368,0,0,0-7.19573-.96519c-9.02352,1.4457-16.061-3.60546-19.62556-13.81151-7.88537,5.6613-15.98789,6.63659-23.65822.00435-5.79924-5.01437-6.715-11.65335-4.69932-19.20568-5.367-.81272-9.87983-3.123-12.92072-7.66974a17.1875,17.1875,0,0,1-2.33487-14.55845c-1.24058-.30322-2.27114-.55478-3.30155-.807-10.17615-2.49107-15.86015-12.41544-12.50134-22.28026.79679-2.34012.3995-3.6517-1.29826-5.276-5.92023-5.66427-11.694-11.482-17.50526-17.25972-4.48748-4.46162-4.82723-7.66242-1.28325-12.71224q23.55933-33.56955,47.11911-67.13871a9.35988,9.35988,0,0,1,7.77531-4.38162c6.25175-.3304,12.49874-.8815,18.72364-1.56113a57.64408,57.64408,0,0,1,31.9142,5.67737c1.84741.8928,3.14116.63944,4.95573-.08609,13.62335-5.44719,27.26236-10.868,41.028-15.94,5.3129-1.95759,10.936-1.52442,16.32156.40371,14.043,5.02757,28.11094,9.99073,42.06806,15.24743a10.38,10.38,0,0,1,5.133,4.60154c11.968,23.6153,23.74361,47.32822,35.53417,71.03322,2.22789,4.47919,1.61895,7.56741-2.12289,10.97435C414.04706,310.20947,405.1003,318.26551,395.46993,326.97612Zm23.91-31.38917c-11.899-23.86395-23.63317-47.44827-35.47109-70.98037a6.05822,6.05822,0,0,0-3.12139-2.59493c-13.3186-4.89555-26.68557-9.65922-40.03341-14.47543a20.19626,20.19626,0,0,0-14.47861-.01047q-18.71192,7.12676-37.40482,14.30324c-3.82727,1.47487-6.75746,3.81531-8.28227,7.916-1.54721,4.16082-3.61905,8.12667-5.46384,12.17667Q264.65365,264.909,254.158,287.88494c-1.34861,2.93525-1.73435,5.82872,1.16546,7.72269a15.65681,15.65681,0,0,0,7.00313,2.36175c5.80694.484,10.36171-2.60759,14.58317-6.14366,10.87815-9.112,16.98562-21.11073,20.23917-34.6186,1.59165-6.60812,2.33929-13.41952,3.49563-20.29777,3.52637.169,7.1309.257,10.72.5402,2.94293.23216,4.69709,2.12233,3.77073,4.87651-.89445,2.65924.19386,3.91954,1.80836,5.52517q35.62239,35.4269,71.17742,70.92157c.83988.83719,1.72623,1.62778,2.733,2.57354Zm-165.395,51.50118c-2.12569.96761-4.694,1.46972-6.29366,2.99059-4.70894,4.47691-9.185,9.22575-13.46067,14.12275a9.7296,9.7296,0,0,0,13.978,13.42071c4.67549-4.51582,9.1267-9.28335,13.428-14.15987a8.807,8.807,0,0,0,1.21-10.15509C261.14618,349.75611,258.2557,347.83791,253.98484,347.08813Zm-10.39051-8.33137a9.55139,9.55139,0,0,0-5.593-8.22393c-3.54018-1.65067-7.219-1.553-10.18131,1.06013a76.40734,76.40734,0,0,0-8.70434,9.14135c-2.47965,3.05474-2.58355,6.66279-.791,10.19533a9.37524,9.37524,0,0,0,8.78391,5.33518C233.04489,356.33029,243.71238,345.15519,243.59433,338.75676Zm27.4593,50.93161a10.05084,10.05084,0,0,0,10.03126-9.77572,9.83451,9.83451,0,0,0-9.51228-9.82693,9.73279,9.73279,0,0,0-10.16619,9.489A9.94205,9.94205,0,0,0,271.05363,389.68837Zm-50.39325-65.62678a9.786,9.786,0,0,0-9.74749-9.94529,9.84134,9.84134,0,0,0-.2174,19.68049A9.81145,9.81145,0,0,0,220.66038,324.06159Z"/><path d="M432.1859,172.67844c17.98628,36.06881,35.79228,71.776,53.76594,107.81949-5.69306,2.85075-11.25769,5.64025-16.82519,8.424-3.87187,1.93591-7.72174,3.91818-11.62694,5.78454-9.55405,4.566-19.83433,1.29264-24.577-8.1306q-18.895-37.54255-37.50653-75.2275c-4.476-9.05823-1.33254-19.3249,7.39963-23.94343C412.37364,182.3497,422.14193,177.69249,432.1859,172.67844Zm31.91482,100.83481a6.92755,6.92755,0,0,0-6.98616-6.73831,6.76125,6.76125,0,0,0-6.81854,7.171,6.86686,6.86686,0,0,0,7.0706,6.612A7.08937,7.08937,0,0,0,464.10072,273.51325Z"/></g></svg>