<svg xmlns="http://www.w3.org/2000/svg" viewBox="0 0 566.92913 566.92913"><g id="Partenaire_paier" data-name="Partenaire paier"><path d="M338.91,269.7771a16.47443,16.47443,0,0,1,2.44434-.20569,17.83287,17.83287,0,0,1,3.50659.35071V206.99017a2.97565,2.97565,0,0,0-2.97558-2.97558H314.04671a2.9754,2.9754,0,0,0-2.97509,2.97558v28.12665a17.47788,17.47788,0,0,1,5.95068,3.7348V209.96545H338.91Z"/><path d="M311.07162,279.88965V291.8009a19.11418,19.11418,0,0,1,5.95068-5.75549v-8.63629A18.62759,18.62759,0,0,1,311.07162,279.88965Z"/><path d="M453.25155,357.60614H344.86092v-43.3606a18.99984,18.99984,0,0,1-5.95093,3.02057v43.31537a2.97541,2.97541,0,0,0,2.97535,2.97534H450.27621v9.4925H317.0223V316.59a18.26406,18.26406,0,0,1-5.95068-6.17206v65.60675A2.97535,2.97535,0,0,0,314.04671,379H453.25155a2.97567,2.97567,0,0,0,2.97583-2.97534V360.58148A2.97567,2.97567,0,0,0,453.25155,357.60614Z"/><path d="M454.74582,229.70112a2.97545,2.97545,0,0,0,0-5.9509H368.23025a2.97545,2.97545,0,1,0,0,5.9509Z"/><path d="M454.74582,249.43651a2.97545,2.97545,0,0,0,0-5.9509H368.23025a2.97545,2.97545,0,1,0,0,5.9509Z"/><path d="M454.74582,269.1719a2.97545,2.97545,0,0,0,0-5.9509H368.23025a2.97545,2.97545,0,1,0,0,5.9509Z"/><path d="M454.74582,288.90728a2.97545,2.97545,0,0,0,0-5.95089H368.23025a2.97545,2.97545,0,1,0,0,5.95089Z"/><path d="M454.74582,308.64293a2.97558,2.97558,0,0,0,0-5.95116H368.23025a2.97558,2.97558,0,0,0,0,5.95116Z"/><path d="M454.74582,328.37806a2.97535,2.97535,0,0,0,0-5.95069H368.23025a2.97535,2.97535,0,1,0,0,5.95069Z"/><path d="M483.19417,213.1983,459.4515,189.45575a2.96649,2.96649,0,0,0-2.11621-.88434H341.88534a2.97541,2.97541,0,0,0-2.97535,2.97534V270.919a19.07724,19.07724,0,0,1,5.95093-3.12549V194.52234H456.10287l22.0122,22.01178v141.072H344.86092V308.43652A18.66836,18.66836,0,0,1,338.91,315.3822v45.19928a2.97541,2.97541,0,0,0,2.97535,2.97534H481.09041a2.97556,2.97556,0,0,0,2.97535-2.97534V215.30219A2.96529,2.96529,0,0,0,483.19417,213.1983Z"/><polygon points="274.569 209.411 270.948 215.085 274.569 220.848 274.569 209.411"/><polygon points="259.261 212.889 258.574 214.997 259.91 214.997 259.261 212.889"/><path d="M333.82677,278.34485l1.69273-1.31645h13.58579l2.95348-3.58315,1.1814-5.37476-1.77206-5.37473-15.94861.59716L331.334,268.935c-8.36763-49.09589-29.64015-48.41043-29.64015-48.41043s-5.39627-.07522-13.573-.17893l-7.21443-13.85668-6.3878-2.7884-26.82876-.55768-6.3878,4.46144-6.54608,12.192c-5.13694-.033-9.83512-.0527-13.74326-.0527-17.86679,0-26.903,30.76-30.5249,47.69639l-3.97829-4.928-17.3558-.5972-1.92842,5.37473,1.28563,5.3748,3.214,3.58311h14.78455l2.08861,1.49262c-.05443.37025-.082.57466-.082.57466-12.53173,0-22.785,10.71851-22.785,23.81892v19.52371c0,11.35911,7.71047,20.92212,17.92913,23.2651v10.70618A9.20177,9.20177,0,0,0,192.625,365h11.2057a9.20177,9.20177,0,0,0,8.96457-9.37137V345.4763H315.14074v10.15233A9.20177,9.20177,0,0,0,324.10531,365H335.311a9.20178,9.20178,0,0,0,8.96457-9.37137V342.14339a24.08858,24.08858,0,0,0,11.2057-20.486V302.13364C355.4813,289.42941,345.83876,278.96623,333.82677,278.34485Zm-73.55609-70.38513,4.26328,11.87933,3.00509-4.7555-4.43071-6.94155h3.4421l2.71073,4.38474,2.6489-4.38474h5.3365v14.18959h-5.12638l-2.85691-4.58684-2.89825,4.58684h-3.91128l-1.4304-4.14433h-3.55869l-1.40789,4.14433h-2.95736l5.18426-14.37187Zm-15.3086.18228h10.62431v3.18989h-3.95053v10.9997h-2.67758v-10.9997h-3.9962ZM193.74557,315.0193c-6.80759,0-12.32629-5.2447-12.32629-11.71421,0-6.46967,5.5187-11.71426,12.32629-11.71426s12.32628,5.24459,12.32628,11.71426C206.07185,309.7746,200.55315,315.0193,193.74557,315.0193Zm95.24852,24.20941H238.94193a7.81719,7.81719,0,0,1,0-15.619h50.05216a7.81719,7.81719,0,0,1,0,15.619Zm19.42323-27.33321h-94.875v-4.68571h94.875Zm-1.49409-10.9333V304.086H214.28936V300.9622Zm-92.63387-3.12378v-3.1238h93.38091v3.1238Zm-13.44685-22.64751C205.3248,229.115,228.48327,228.334,228.48327,228.334s36.60531.781,63.499.781,31.376,46.85691,31.376,46.85691ZM327.467,312.67646c-6.80758,0-12.32628-5.24469-12.32628-11.71426S320.65944,289.248,327.467,289.248s12.3263,5.24458,12.3263,11.71419S334.27461,312.67646,327.467,312.67646Z"/></g></svg>