<svg xmlns="http://www.w3.org/2000/svg" viewBox="0 0 566.92913 566.92913"><g id="Taxi"><polygon points="303.285 178.09 298.144 186.144 303.285 194.325 303.285 178.09"/><polygon points="281.555 183.026 280.58 186.019 282.476 186.019 281.555 183.026"/><path d="M387.40265,275.94242l2.40286-1.86872h19.28533l4.19253-5.08636,1.677-7.62959-2.51548-7.62956-22.63941.84768-5.94135,8.009c-11.878-69.6927-42.07485-68.71968-42.07485-68.71968s-7.66012-.10676-19.26712-.254l-10.241-19.66986-9.06762-3.9582-38.084-.79164-9.06762,6.33311-9.29231,17.3068c-7.292-.0469-13.96117-.07481-19.50886-.07481-25.36231,0-38.18943,43.66454-43.33078,67.70609l-5.64726-6.99538-24.637-.84774-2.73743,7.62956,1.825,7.62964,4.56241,5.08631h20.987l2.96482,2.11881c-.07727.52557-.11636.81573-.11636.81573-17.78907,0-32.34374,15.21517-32.34374,33.81149v27.71433c0,16.12451,10.94518,29.69941,25.45081,33.02533v15.19766c0,7.31651,5.72642,13.30287,12.7254,13.30287h15.90674c6.999,0,12.7254-5.98636,12.7254-13.30287V371.237H360.87741v14.41146c0,7.31651,5.72643,13.30287,12.72541,13.30287h15.90677c6.99895,0,12.7254-5.98636,12.7254-13.30287V366.50587a34.19427,34.19427,0,0,0,15.90674-29.0804V309.71114C418.14173,291.6772,404.45393,276.82449,387.40265,275.94242Zm-104.4145-99.91325,6.05182,16.863,4.26579-6.75053-6.28948-9.85368h4.88613l3.84794,6.22423,3.76017-6.22423h7.57527v20.14243h-7.277l-4.05545-6.51112-4.11412,6.51112h-5.55216l-2.03048-5.883h-5.05164l-1.99852,5.883h-4.19806l7.35918-20.40119Zm-21.7309.25876h15.08144V180.816h-5.60787v15.61432H266.93V180.816h-5.6727Zm-72.703,151.71469c-9.66352,0-17.49744-7.445-17.49744-16.62859,0-9.18384,7.83392-16.62864,17.49744-16.62864s17.49743,7.4448,17.49743,16.62864C206.05171,320.55765,198.21779,328.00262,188.55428,328.00262Zm135.20739,34.36579H252.71152a11.09668,11.09668,0,0,1,0-22.17151h71.05015a11.09668,11.09668,0,0,1,0,22.17151Zm27.57171-38.8001H216.65621v-6.65146H351.33338Zm-2.1209-15.52v4.43431H217.71665v-4.43431ZM217.71665,303.614v-4.43431H350.27291V303.614Zm-19.0881-32.14864c6.3627-65.40584,39.23667-66.51443,39.23667-66.51443s51.962,1.10859,90.13825,1.10859,44.53891,66.51443,44.53891,66.51443Zm179.7463,53.21156c-9.66352,0-17.49744-7.44494-17.49744-16.62864,0-9.18376,7.83392-16.62856,17.49744-16.62856s17.49744,7.4448,17.49744,16.62856C395.87229,317.232,388.03837,324.6769,378.37485,324.6769Z"/></g></svg>